<svg width="32" height="32" viewBox="0 0 32 32" fill="none" xmlns="http://www.w3.org/2000/svg">
<path d="M9.25796 21.5573C12.1676 21.5573 14.5481 19.137 14.5481 16.201C14.5481 14.6668 13.7943 13.212 12.2866 11.982C10.7789 10.7521 9.64149 8.92697 9.25796 7.00928C8.87442 8.92697 7.75025 10.7653 6.22933 11.982C4.7084 13.1988 3.96777 14.68 3.96777 16.201C3.96777 19.137 6.34836 21.5573 9.25796 21.5573Z" stroke="#33537A" stroke-width="2.64509" stroke-linecap="round" stroke-linejoin="round"/>
<path d="M16.6097 8.72861C17.5193 7.2753 18.1641 5.67227 18.5142 3.9939C19.1755 7.30026 21.1593 10.4744 23.8044 12.5904C26.4495 14.7065 27.772 17.2194 27.772 19.8644C27.7796 21.6926 27.2442 23.4818 26.2336 25.0053C25.2231 26.5288 23.783 27.7179 22.0958 28.422C20.4087 29.126 18.5505 29.3132 16.7568 28.96C14.9631 28.6067 13.3147 27.7287 12.0205 26.4375" stroke="#33537A" stroke-width="2.64509" stroke-linecap="round" stroke-linejoin="round"/>
</svg>
