<svg width="32" height="32" viewBox="0 0 32 32" fill="none" xmlns="http://www.w3.org/2000/svg">
<path d="M14.5481 18.516H17.1932C17.8948 18.516 18.5675 18.2373 19.0636 17.7413C19.5596 17.2452 19.8383 16.5724 19.8383 15.8709C19.8383 15.1694 19.5596 14.4966 19.0636 14.0006C18.5675 13.5045 17.8948 13.2258 17.1932 13.2258H13.2256C12.4321 13.2258 11.7708 13.4903 11.374 14.0194L3.96777 21.1611" stroke="#33537A" stroke-width="2.64509" stroke-linecap="round" stroke-linejoin="round"/>
<path d="M19.1067 17.7089L25.7856 11.5008C26.7061 10.5803 27.7694 9.05942 27.7694 7.60462C27.7696 6.86843 27.5463 6.14952 27.1292 5.54292C26.712 4.93632 26.1206 4.4706 25.4331 4.20733C24.7456 3.94405 23.9944 3.89561 23.2787 4.0684C22.5631 4.2412 21.9168 4.62711 21.4251 5.1751C21.391 5.21221 21.3495 5.24183 21.3032 5.26209C21.257 5.28236 21.2071 5.29282 21.1567 5.29282C21.1062 5.29282 21.0563 5.28236 21.0101 5.26209C20.9639 5.24183 20.9224 5.21221 20.8882 5.1751C20.3966 4.62711 19.7502 4.2412 19.0346 4.0684C18.319 3.89561 17.5678 3.94405 16.8803 4.20733C16.1928 4.4706 15.6013 4.93632 15.1842 5.54292C14.767 6.14952 14.5438 6.86843 14.5439 7.60462C14.5439 9.19167 15.6046 10.5777 16.5278 11.5008L21.1567 15.8044" stroke="#33537A" stroke-width="2.64509" stroke-linecap="round" stroke-linejoin="round"/>
<path d="M2.64062 19.8381L10.5759 27.7734" stroke="#33537A" stroke-width="2.64509" stroke-linecap="round" stroke-linejoin="round"/>
<path d="M9.26172 26.4509L11.3778 24.5993C11.7746 24.0703 12.4358 23.8058 13.2294 23.8058H18.5195C19.9743 23.8058 21.2969 23.2768 22.2227 22.2188L28.3064 16.3996C28.8167 15.9173 29.1146 15.252 29.1344 14.5501C29.1543 13.8482 28.8945 13.1671 28.4122 12.6568C27.9299 12.1464 27.2646 11.8485 26.5627 11.8287C25.8608 11.8089 25.1797 12.0687 24.6694 12.551" stroke="#33537A" stroke-width="2.64509" stroke-linecap="round" stroke-linejoin="round"/>
</svg>
