<svg width="32" height="32" viewBox="0 0 32 32" fill="none" xmlns="http://www.w3.org/2000/svg">
<path d="M19.8386 27.7735V17.1932C19.8386 16.8424 19.6993 16.506 19.4512 16.258C19.2032 16.0099 18.8668 15.8706 18.516 15.8706H13.2259C12.8751 15.8706 12.5387 16.0099 12.2907 16.258C12.0427 16.506 11.9033 16.8424 11.9033 17.1932V27.7735" stroke="#33537A" stroke-width="2.64509" stroke-linecap="round" stroke-linejoin="round"/>
<path d="M3.96777 13.2258C3.96768 12.841 4.05154 12.4608 4.21349 12.1118C4.37544 11.7628 4.61159 11.4533 4.90546 11.2049L14.1633 3.26965C14.6407 2.86615 15.2456 2.64478 15.8707 2.64478C16.4958 2.64478 17.1007 2.86615 17.5781 3.26965L26.8359 11.2049C27.1298 11.4533 27.3659 11.7628 27.5279 12.1118C27.6898 12.4608 27.7737 12.841 27.7736 13.2258V25.1287C27.7736 25.8302 27.4949 26.503 26.9989 26.999C26.5028 27.4951 25.83 27.7738 25.1285 27.7738H6.61286C5.91134 27.7738 5.23855 27.4951 4.7425 26.999C4.24645 26.503 3.96777 25.8302 3.96777 25.1287V13.2258Z" stroke="#33537A" stroke-width="2.64509" stroke-linecap="round" stroke-linejoin="round"/>
</svg>
