<svg width="173" height="66" viewBox="0 0 173 66" fill="none" xmlns="http://www.w3.org/2000/svg">
<path d="M170.673 32.8032C166.21 23.8039 162.893 16.0803 162.893 16.0803C162.893 16.0803 159.35 25.7421 155.776 32.8032C151.792 42.0078 156.733 48.3598 162.893 48.3598C169.052 48.3598 175.137 41.8025 170.673 32.8032Z" stroke="#001A55" stroke-width="1.59124" stroke-miterlimit="3.8637"/>
<path d="M167.123 32.4391L167.952 31.9648C168.519 32.5244 172.41 38.8585 168.118 44.532C168.003 44.6931 167.879 44.8488 167.745 44.9986C167.876 44.8436 168 44.6881 168.118 44.532C170.936 40.5791 168.141 33.4066 167.123 32.4391Z" fill="#001A55"/>
<path d="M2.59145 17.5509H13.5028C25.3689 17.5509 31.0974 22.3701 31.0974 33.0542C31.0974 42.056 25.3689 48.3301 13.1391 48.3301H2.59145V17.5509ZM8.77456 47.5117H12.5481C20.7316 47.5117 24.1414 40.1011 24.1414 33.0542C24.1414 23.825 20.0042 18.3693 11.957 18.3693H8.77456V47.5117ZM50.4569 47.5117V48.3301H35.1355V17.5509H49.6386V18.3693H41.3186V32.2813H47.9109V33.0996H41.3186V47.5117H50.4569ZM68.2078 47.5117V48.3301H53.2501V17.5509H59.4332V47.5117H68.2078ZM93.6481 47.5117V48.3301H78.6904V17.5509H84.8736V47.5117H93.6481ZM111.408 47.5117V48.3301H96.4499V17.5509H102.633V47.5117H111.408ZM124.302 48.3301L122.165 38.3735H115.255L113.118 48.3301H112.163L118.256 19.9151L117.755 17.5509H124.029L130.622 48.3301H124.302ZM115.391 37.5551H122.029L118.71 22.0519L115.391 37.5551ZM148.974 17.5509H149.883V48.3301H143.518L134.744 22.9157V48.3301H133.834V20.7334L132.743 17.5509H139.063L148.974 45.6932V17.5509Z" fill="#001A55"/>
<rect x="2.63666" y="0.245605" width="170.363" height="3.65064" fill="#001A55"/>
<rect x="2.63666" y="62.1038" width="170.363" height="3.65064" fill="#001A55"/>
</svg>
